<svg width="24" height="24" viewBox="0 0 24 24" fill="#f97316" xmlns="http://www.w3.org/2000/svg">
<path d="M12 .5C5.37.5 0 5.87 0 12.5C0 17.69 3.44 22.09 8.21 23.66C8.81 23.77 9.03 23.41 9.03 23.1C9.03 22.82 9.02 22.1 9.02 21.22C5.67 21.92 4.97 19.64 4.97 19.64C4.43 18.27 3.64 17.92 3.64 17.92C2.55 17.2 3.72 17.22 3.72 17.22C4.93 17.3 5.56 18.46 5.56 18.46C6.62 20.24 8.34 19.74 9.05 19.44C9.16 18.67 9.47 18.14 9.81 17.83C7.15 17.52 4.36 16.47 4.36 11.86C4.36 10.56 4.82 9.51 5.6 8.69C5.47 8.38 5.06 7.18 5.72 5.54C5.72 5.54 6.72 5.2 9.02 6.73C9.99 6.48 11.03 6.36 12.07 6.36C13.11 6.36 14.14 6.48 15.12 6.73C17.41 5.2 18.41 5.54 18.41 5.54C19.07 7.18 18.66 8.38 18.53 8.69C19.31 9.51 19.77 10.56 19.77 11.86C19.77 16.49 16.96 17.51 14.28 17.82C14.71 18.19 15.09 18.93 15.09 20.06C15.09 21.67 15.06 22.93 15.06 23.1C15.06 23.41 15.28 23.78 15.88 23.66C20.65 22.09 24.09 17.69 24.09 12.5C24.09 5.87 18.72.5 12 .5Z"></path>
</svg>
